<?xml version="1.0" encoding="utf-8"?>
<!-- Generator: Adobe Illustrator 19.0.0, SVG Export Plug-In . SVG Version: 6.00 Build 0)  -->
<svg version="1.1" id="layer" xmlns="http://www.w3.org/2000/svg" xmlns:xlink="http://www.w3.org/1999/xlink" x="0px" y="0px"
	 viewBox="-153 -46 652 652" style="enable-background:new -153 -46 652 652;" xml:space="preserve">
<style type="text/css">
	.st0{fill:#F5F200;}
	.st1{fill:#333333;}
</style>
<g>
	<g>
		<path class="st0" d="M-131.4,327.2c-0.1-0.7,0.1-1.4,0.4-2c0-0.1,0.1,0,0.2-0.1c0.1-0.2,0.1-0.4,0.1-0.7c0-0.4-0.1-0.8-0.2-1.2
			c-0.2-0.8-0.3-1.7-0.1-2.6c0.1-0.5,0.1-1.1,0-1.6c-0.1-0.6-0.3-1.2-0.6-1.7c-0.2-0.3-0.3-0.6-0.4-0.9c0-0.2,0-0.4,0-0.6
			c0.2-0.3,0.4-0.5,0.6-0.8c0.1-0.1,0.3,0.1,0.4-0.1c0.2-0.4-0.1-0.8-0.1-1.2v-0.2c0-0.7-0.1-1.3-0.2-1.9c-0.1-0.3-0.1-0.8,0.1-0.9
			c0.2-0.1,0.2-0.5,0.1-1c-0.1-0.3-0.2-0.7-0.2-1.1c-0.1-0.4-0.2-0.8-0.2-1.3c0-0.1,0.1,0,0.2,0c0.1,0,0.1-0.1,0.1-0.3
			c0-0.2,0.1-0.8,0.3-0.8c0.2,0,0.2-1.4,0.4-1.8c0.3-0.8,0.4-1.6,0.2-2.4c-0.1-1.3-0.1-1.3,0.2-2.1c0-0.1,0.1-0.2,0.1-0.4
			c0.1-0.5,0.2-0.6,0.4-0.5c0.1,0,0.2,0,0.2,0c0.2-0.1,0.3-0.3,0.1-0.8c-0.2-0.5-0.4-0.9-0.7-1.3c-0.2-0.3-0.3-0.6-0.4-0.9
			c-0.1-0.4-0.1-0.8-0.1-1.3c0-0.1,0.1-0.2,0.2-0.1c0.1,0.1,0.2,0.5,0.3-0.1c0.1-0.3,0-0.6-0.2-0.9c0,0,0-0.1-0.1-0.2
			c-0.2-0.7-0.2-1.1,0.1-1.4c0.3-0.5,0.4-1,0.3-1.5c0-0.5,0-1-0.1-1.5c-0.1-0.6,0-0.6,0.1-0.6c0.1,0,0.2-0.1,0.2-0.2
			c0-0.3-0.1-0.6-0.1-0.8c-0.1-0.3-0.2-0.5-0.2-0.8c0-0.2,0-0.3,0-0.5c0,0.1,0.1,0.1,0.1,0.2c0.1,0.1,0.3,0.4,0.4,0.4
			c0.1,0,0.2-0.2,0.2-0.4c0-0.3-0.1-0.7-0.2-1c-0.4-0.4-0.4-1.4-0.5-2.2c-0.1-1-0.2-1.5-0.5-1.7c-0.3-0.2-0.1-0.5,0-0.7
			c0.2-0.6,0.3-1.2,0.2-1.8c0-0.4-0.1-1,0.1-1c0.2-0.1,0.3-0.7,0.2-1.3c-0.2-0.8,0-0.6,0.2-0.7c0.2,0,0.2,0,0.3-0.2
			c0-0.6,0-1.2-0.3-1.8c-0.2-0.2-0.3-0.4-0.5-0.7c-0.1-0.2-0.1-0.5-0.1-0.7c0.1,0,0.1-0.1,0.2,0c0.3,0.5,0.5-0.3,0.8-0.4
			c0-0.2,0.1-0.4,0-0.5c0-0.3-0.1-0.6-0.2-0.8c-0.1-0.5-0.3-0.9,0-1.2c0.2-0.4,0.1-0.8-0.1-1.2c-0.1-0.2-0.2-0.5-0.3-0.7
			c-0.1-0.2-0.1-0.5-0.1-0.7c0.1-0.1,0.2-0.2,0.2-0.2c0.1,0,0.2,0.1,0.3,0c0.1-0.1,0.2-0.2,0.2-0.4c0-0.3,0-0.6-0.1-0.9
			c-0.4-0.6-0.3-1.6-0.2-2.4c0.1-0.4,0-0.9-0.1-1.3c0-0.2-0.1-0.4-0.1-0.6c0.1,0,0.1,0,0.2,0.1c0,0,0.1,0.2,0.1,0.2
			c0,0,0.1-0.2,0.1-0.2c-0.1-0.6-0.1-1.5-0.4-1.7c-0.3-0.3-0.4-1.1-0.4-1.8c0-0.7,0.2-1,0.4-1c0.3-0.1,0.4-0.6,0.4-1.5
			c0-0.9,0.1-1.1,0.4-1.1c0.3,0,0.4-0.3,0.2-1.2c-0.1-0.2-0.1-0.4-0.2-0.6c-0.1-0.3-0.2-0.6-0.1-0.9c0.1-0.6,0.1-1.1-0.1-1.7
			c-0.1-0.2-0.2-0.4-0.2-0.7c-0.1-0.2-0.1-0.4-0.1-0.6c0-0.3,0-0.5,0.1-0.8c0.1-0.2,0.2-0.3,0.3-0.5c0.1-0.2,0.1-0.4,0.1-0.6v-0.4
			c-0.1-0.5-0.1-0.9,0-1.4c0-0.4,0.1-0.8,0.1-1.2c0-0.2,0-0.3-0.1-0.5l-0.1-0.2c0.1-0.3,0.1-0.8,0.2-0.9c0,0,0.1-0.1,0.1-0.1
			c0.1-0.2,0.1-0.5,0.1-0.7c0-0.4-0.1-0.8-0.1-1.1c0-0.3,0.1-0.5,0.1-0.8c0-0.2,0-0.3,0-0.5v-0.2c0-0.3,0-0.7-0.1-0.9
			c0-0.4-0.1-0.7-0.1-1.1c0-0.8,0.8-1.8,0.7-2.3c-0.1-0.3-0.2-0.5-0.2-0.7c-0.2-0.7-0.2-0.7,0.1-1.1c0.1-0.2,0.1-0.4,0.1-0.5
			c0-0.3-0.1-0.5-0.2-0.8c-0.2-0.6-0.5-1-0.7-1.6c-0.1-0.3,0.6-1.3,0.6-1.8c0.1-0.8,0-1.5-0.1-2.3c-0.3-0.6-0.1-0.5-0.4-1.1
			c0,0,0.8-1.6,0.7-2.2c0.1-0.1,0.1-0.3,0.2-0.4c0.1-0.1,0.1-0.2,0.1-0.3c0.1-0.4,0-0.8-0.3-1.1c0,0-1.1-2.1,0.1-2.5l0.3-0.5
			l0.2-0.7c0.1-0.5,0.3-1.1,0.6-1.6l0.1-0.1c0.1-0.1,0.3-0.1,0.4-0.1c0.1,0,0.2-0.1,0.3-0.1c0.2-0.1,0.3-0.2,0.5-0.2
			c0.3-0.1,0.6-0.1,0.8,0c0.1,0,0.1,0,0.2,0.1c0,0,0.7,0.1,1.6,0.4c32.7,8.7,146.6-0.9,223-22.2c2-0.5,5.2-1.3,5.8-1.5
			c0.7-0.2,0.2,0.6-0.5,1.2c-0.5,0.4-2.8,0.8-3,0.9c-0.1,0.1-0.2,0.2-0.2,0.3c0.5,1.1,3.5,0,4.7-0.2c1.2-0.1,1.1,0.4,0.4,0.8
			c-1.1,0.7-1.3,1.6-0.8,2c0.1,0.1,0.3,0.1,0.4,0.2c0.1,0.1,0.3,0.4,0.3,0.5c-0.1,0.3-0.3,0.6-0.5,0.8c-0.6,0.5-0.7,1.3-0.3,1.9
			c0.3,0.4,0.3,0.8,0,1.2c-0.3,0.5-3.7,1.8-4.3,2.1c-0.4,0.1-0.8,0.3-1.2,0.6c-0.1,0.1-0.2,0.4-0.1,0.5c0.5,0.3,4-1.3,4.5-1.1
			c0.3,0.1,4.5-1.3,2.6,0.1c-0.4,0.3-1.7,1.5-1.7,1.8c0,0.1,0,0.1,0,0.2c-0.1,0.5-0.1,1-0.5,1.4c-0.3,0.2-0.1,0.7,0.2,0.7
			c0.6,0.2,0.4,0.4,0.1,0.8c-0.6,0.7-2.6,1.5-3.2,2.2c-0.1,0.1,0,0.2-0.1,0.3c0.1,0,0.3,0.1,0.3,0c0.3-0.4,0.7-0.2,1.1-0.3
			c0.9-0.4,3.3-1.3,3.6-1.6c0.6-0.6,1.5-0.2,0.9,0.7c-0.2,0.3-0.4,0.1-0.6,0.7c-0.2,0.3-0.4,0.5-0.6,0.8c-0.4,0.4-0.7,0.9-0.3,1.3
			c0.7,0.5,0.6,1.2,0.5,1.9c-0.2,1-0.2,1,0.4,1.7c0.1,0.1,0.2,0.2,0.2,0.3c0.1,0.4,0.5,0.6,0.9,0.5c0.2,0,0.4,0,0.5,0.1
			c0.5,0.1,0.6,0.3,0.2,0.6c-0.5,0.3-1,0.5-1.5,0.8c-0.3,0.1-0.6,0.3-0.9,0.6c-0.2,0.2-0.4,0.7-0.2,0.9c0.4,0.3,1.8-0.4,2-0.4
			c0.2,0,0.5-0.3,0.7,0.2c0.1,0.4-3.1,1.4-3.4,1.5c0,0-0.1,0.1-0.1,0.1c-0.5,0.5,0.5,0.6,1.1,0.8c0.6,0.1,2.4-0.6,2.1-0.2
			c-0.1,0.1-1.2,0.7-1.3,1c-0.2,0.5-0.6,0.3-0.6,0.5c0,0.4-0.1,0.7-0.2,1.1c-0.2,0.4,0,0.4,0.3,0.5c0.2,0,0,0.4,0,0.5
			c0,0.2-0.1,0.4-0.3,0.6c-0.2,0.2-0.4,0.3-0.6,0.5c-0.1,0.1,0,0.2,0,0.3c0.1,0,2.4-0.7,2.5-0.7c0.3-0.1,0.7-0.2,1.1-0.2
			c0.2,0,0.9-0.1,0.5,0.4c-0.2,0.2-0.1,0.1-0.8,0.5c-0.8,0.3-0.7,0.3-2.9,1.8c-0.5,0.3-1,0.7-1.4,1c-0.3,0.2,0.1,0.6,0.6,0.4
			c1.5-0.7,4.8-1.6,4.6-1c-0.3,0.7-0.9,1.1-1.1,1.7c-0.3,0.8-0.8,0.5-1,0.7c-0.3,0.3-0.1,0.8,0.3,0.9c0.6,0.2,0.2,0.7,0,1.1
			c-0.4,0.6,0,0.5,0.4,0.5c0.2,0,2-0.3,2.1-0.1c0.2,0.3-1.3,1-1.8,1.2c-0.6,0.2-1.1,0.5-1.5,0.9c-0.1,0.2-0.4,0.7-0.3,0.7
			c0.5,0,0.9-0.1,1.4-0.2c1.3-0.1,1.5-0.7,2.2-0.6c0.5,0.1-1,0.4-1.4,1.2c-0.3,0.6-0.5,0.5-0.7,0.6c-0.3,0.3-0.7,0.5,0,0.9
			c0.4,0.2,1,0.5,0.6,0.7c-0.2,0.2-0.4,0.4-0.3,0.7c0,0.2,0.4,0,0.9,0.2c0.3,0.1,0.6,0.1,0.9,0.1c0.2,0,0.4,0.1,0.5,0.1
			c0.2,0.1,0.8,0.1,0.8,0.2c0,0.1-0.8,0.6-1,0.7c-0.7,0.2-1.7,1-1.7,1.6c0,0.2,2.1-0.9,2.5-0.7c0.5,0.3-0.7,0.2-1,0.9
			c-0.3,0.8-1.5,0.7-1.6,0.8c-0.1,0.2-0.2,0.3-0.3,0.4c-0.1,0.1-0.1,0.3-0.2,0.4c0.1,0,0.3,0,0.4,0c0.1,0,0.2-0.1,0.3-0.1
			c0.1,0,0.1,0.1,0.1,0.2c-0.3,0.4-1.2,0.8-1,1.2c0.1,0.1,0.8-0.3,1.4-0.4c0.9-0.2,0.8-0.5,1.2-0.5c0.4,0,0.8-0.4,0.7,0
			c-0.1,0.2-0.3,0.3-0.6,0.4c-0.4,0.1-0.5,0.4-0.4,0.4c0.4,0,0.9,0.1,0.9,0.3c0,0.3,0.4,0.1,0.5,0.3c0.1,0.1,1.2-0.6,1.1,0.1
			c-0.3,0.7-0.8,1.2-1.5,1.5c-0.4,0.2-1.4,0.6-1.4,1.1c0,0.7,3,0,3.7,0.1c0.7,0.1,0.9,0.3,0.4,0.9c-0.1,0.2-0.3,0.3-0.5,0.4
			c-0.3,0.2-0.4,0.3-0.2,0.6c0.3,0.5,0.1,0.8-0.4,1.1c-0.3,0.2-0.6,0.5-0.9,0.7c-0.1,0.1-0.1,0.3-0.2,0.5c0.2,0.1,0.3,0.1,0.5,0.1
			c0.3-0.1,0.7-0.2,1-0.2c0.6,0,0.6,0.1,0.4,0.7c-0.1,0.3-0.1,0.5-0.1,0.8c0,0.5-0.3,1-0.7,1.3c-0.2,0.2-0.4,0.3-0.5,0.5
			c-0.4,0.5-0.4,0.5,0.1,0.8c0.1,0.1,0.3,0.3,0.3,0.5c0,0.2-0.1,0.5-0.3,0.6c-0.5,0.3,1.8-0.3,2.4,1.5c0.1,0.6,2,0.9,1.6,1.2
			c-0.6,0.4-1.3,0.6-1.8,1c-0.3,0.3-0.5,0.6-0.7,1c0.2,0.1,0.3,0.3,0.5,0.4c0.1,0.1,0.2,0.1,0.3,0.2c0.2,0.5,0.7,0.8,1.3,0.8
			c0.3,0.1,0.6,0.2,0.9,0.4c-0.2,0.3-0.5,0.5-0.8,0.7c-0.3,0.2-0.8,0.2-1.1,0.4c-0.3,0.2,0.4,0.3,0.2,0.5c-0.1,0.3-0.1,0.6,0,0.9
			c0,0.1,0.4,0,0.6,0.1c0.2,0,0.3,0.1,0.4,0.2c0.1,0.2,0,0.3,0,0.5c-0.1,0.2-1.4,0.4-1.6,0.5c-0.4,0.4-0.3,0.7,0.2,0.9
			c1.2,0.4,2.6,1.2,2,2.1c-0.3,0.4,0,0.4,0.2,0.4c0.2,0.1,0.3,0,0.4,0.1c0.4,0.1,0.4,0.3,0.1,0.6c-0.2,0.2-1.5,0.7-1.7,0.9
			c0,0.1-4.3,2,0.1,0.7c0.1,0,0.5-0.2,0.9-0.4c0.3-0.1,0.8-0.2,1.2-0.3c0.2-0.1,0.5,0.2,0.5,0.4c0.1,0.2-0.1,0.5-0.4,0.6
			c-0.2,0-0.4,0.1-0.5,0.3c-0.2,0.5-0.8,0.9-0.8,1.6c0,0.2-0.4,0.5-0.7,0.6c-0.1,0.1-0.2,0.1-0.3,0.2c0,0.1-0.1,0.2-0.1,0.3
			c0,0.1,0.1,0.1,0.2,0.1c0.6,0.3,0.4,0.7,0.4,1.2c-0.1,0.4,1.5-0.4,2-0.2c0.4,0.1,0.6,0.6,0.3,0.9c-0.4,0.4-0.2,0.4,0.2,0.5
			c0.2,0,0.6,0.2,0.6,0.3c0,0.4-0.1,0.7-0.2,1c-0.1,0.1-0.3,0.2-0.5,0.3c-0.4,0.1-0.7,0.2-1.1,0.4c-0.1,0.1-0.1,0.2-0.1,0.3
			c0,0.1,0.2,0.2,0.2,0.2c0.6-0.3,1,0.1,1.5,0.4c0.3,0.1-1.5,0.7-0.8,1c0.5,0.2,0.5-0.2,0.9-0.1c0.7,0-0.2,0.6-1.3,0.6
			c-0.6,0-0.9,0.7-1,0.8c-0.3,0.2-0.2,0.7,1.1,0.2c0.6-0.2,2.5,0.7,1.9,1c-0.1,0-1,0.6-1,0.7c-0.2,0.3-0.6,0.3-0.2,0.7
			c0.2,0.1,0.1,0.4,0.3,0.5c0.1,0,0.7,0,0.8,0.1c0.2,0.1,1-0.9,1.3-0.4c0.1,0.2-1.3,1.2-1.5,1.4c-0.4,0.3-1.4,0.7-1.8,1.2
			c-0.1,0.1,0.9-0.2,1.1-0.3c0.3-0.2,0.7-0.2,1,0.1c0,0.1-1.6,0.6-2.1,1.2c-0.2,0.2-0.2,0.5-0.4,0.7c-0.3,0.2-0.4,0.3,0.1,0.5
			c0.1,0,2.4-0.7,3.2-0.6c0.8,0.1,0.1,0.5-0.1,0.7c-0.1,0.1-0.2,1.1-0.3,1.2c-0.2,0.2-0.9,0.6-1,0.8c-0.3,0.6,4.3,1.2,3.6,1.5
			c-134.9,57.7-253.3,32.8-256.1,31.6C-131.4,327.4-131.3,327.3-131.4,327.2L-131.4,327.2z M-131.4,327.2"/>
	</g>
	<path class="st1" d="M381.2,292.6c1.4-1.1,2.9-2.2,4.3-3.4c13.4-10.3,27.3-21,27.3-36.6c0-12.2-8.8-20.8-21.4-20.8
		c-11.1,0-23,7.4-23,23.7c0,0.7,0,1.5,0.1,2.2l9-3.5c0-8.9,6.7-13.7,13.3-13.7c6.4,0,12.9,4.1,12.9,13.1c0,11.8-12,21-28.6,33.7
		c-2.4,1.8-4.8,3.7-7.4,5.7l-0.1,0.1v8.7h47.2v-9.4H381.2z M156,262.2l-0.8-0.3c-7.4-3-12.7-5.6-12.7-12.3c0-6.6,5.2-10,10.4-10
		c4.2,0,9.4,2.2,11.5,7.1l8.8-3.4l-0.1-0.3c-3.4-8.6-12.5-12.4-20-12.4c-9.8,0-20.4,6.2-20.4,19.8c0,13.3,10.1,17.4,18.3,20.7l1,0.4
		c8.4,3.4,13.8,6.2,13.8,13c0,7-5.9,10.2-11.8,10.2c-5.9,0-12.7-3.1-14.8-11.8l-0.1-0.4l-9.3,3.5c2.8,10.8,12,17.8,23.7,17.8
		c5.9,0,11.3-1.8,15.4-5.1c4.6-3.7,7-8.9,7-15.2C176,270.1,165.4,265.9,156,262.2L156,262.2z M254.4,249.9c-14.5,0-25,11.2-25,26.7
		c0,15.5,10.5,26.7,25,26.7c14.5,0,25-11.2,25-26.7C279.4,261.2,268.9,249.9,254.4,249.9L254.4,249.9z M270.2,276.6
		c0,11.8-7.9,18-15.7,18c-7.9,0-15.9-6.2-15.9-18c0-10.4,6.7-17.9,15.9-17.9C263.6,258.7,270.2,266.3,270.2,276.6L270.2,276.6z
		 M317.7,280.5c0,9.4-6.9,14.4-13.4,14.4c-4.9,0-10.2-2.9-10.2-11.2v-32.5h-9v32.5c0,14.4,9.4,19.6,17.4,19.6
		c6.5,0,12.1-3.1,15.1-8.1l1.7,6.9h7.3v-50.9h-9V280.5z M350.1,236.7l-8.9,3.5v11.1h-8.5v8.2h8.5v27.9c0,13.9,7.9,16,12.6,16
		c2.2,0,4.5-0.4,6.6-1l0.3-0.1v-8.9l-0.6,0.4c-1.3,0.9-2.8,1.3-4.3,1.4c-3.6,0-5.6-2.6-5.6-7.1v-28.6h10.6v-8.2h-10.6V236.7z
		 M456.2,275.8v-20.6l-9.2,3.5v17.1h-20.6l25.1-42.8h-10.2l-26.6,45.2v6.9h32.2v17h9.2v-17h11.9v-9.3H456.2z M218.6,286.7
		c-2.5,4.8-7.6,7.9-13,7.9c-7.6,0-15.3-5.6-15.3-18c0-8.6,4.6-17.8,14.7-17.8c5,0,9.6,2.7,11.9,7.1l8.6-3.3l-0.2-0.3
		c-3.6-7.6-11.3-12.3-20.3-12.3c-6.2-0.1-12.1,2.3-16.5,6.6c-4.9,4.8-7.4,11.8-7.4,20.1c0,18.3,12.5,26.7,24.1,26.7
		c9,0,17-4.9,21.4-13.2l0.2-0.3l-0.1,0L218.6,286.7z M218.6,286.7"/>
	<path class="st1" d="M-74.1,231.7h-9.4l-30.4,70.4h11.1l7.2-17.4H-62l7.2,17.4h11.1L-74.1,231.7z M-65.8,275.6h-26.1l13.1-31.5
		L-65.8,275.6z M-9.9,251v29.4c0,9.3-6.8,14.4-13.3,14.4c-4.9,0-10.1-2.9-10.1-11.1V251h-9.1v32.6c0,6.2,1.8,11.4,5.4,14.9
		c3.2,3.2,7.6,4.9,12.1,4.8c6.4,0,12.1-3,15.1-8l1.7,6.8h7.5V251H-9.9z M33.7,259.4V251H23.1v-14.5L14,240v11H5.5v8.4H14v27.8
		c0,14,8,16.1,12.7,16.1c2.2,0,4.5-0.3,6.6-1l0.3-0.1V293l-0.7,0.5c-1.3,0.8-2.8,1.3-4.3,1.4c-3.5,0-5.6-2.6-5.6-7.1v-28.5H33.7z
		 M62.5,249.7c-7.4,0-13.7,2.7-18.3,7.9c-4.4,4.9-6.8,11.6-6.8,18.9c0,7.3,2.4,14.1,6.8,18.9c4.6,5.1,11,7.9,18.3,7.9
		c14.5,0,25.1-11.3,25.1-26.8C87.6,261,77,249.7,62.5,249.7L62.5,249.7z M62.6,294.5c-7.9,0-15.9-6.2-15.9-17.9
		c0-10.3,6.7-17.8,15.9-17.8c9.1,0,15.7,7.5,15.7,17.8C78.2,288.3,70.4,294.4,62.6,294.5L62.6,294.5z M62.6,294.5"/>
</g>
</svg>
